<svg width="100" height="101" viewBox="0 0 100 101" fill="none" xmlns="http://www.w3.org/2000/svg">
<rect y="0.75" width="100" height="100" rx="25" fill="black"/>
<path d="M44.3125 69.5V61.3842C44.3125 60.8159 43.705 60.4541 43.2053 60.7247L35.9939 64.6309C35.6213 64.8328 35.1555 64.6859 34.9659 64.3068L31.1019 56.5788C30.9356 56.2462 31.038 55.8421 31.3426 55.6289L37.4132 51.3795C37.8456 51.0768 37.8383 50.4339 37.3991 50.1411L31.0285 45.894C30.6971 45.673 30.5962 45.2314 30.7989 44.8884L34.9687 37.8318C35.1641 37.5012 35.5777 37.3716 35.9269 37.5316L43.25 40.888C43.7468 41.1157 44.3125 40.7527 44.3125 40.2062V32C44.3125 31.5858 44.6483 31.25 45.0625 31.25H54.0625C54.4767 31.25 54.8125 31.5858 54.8125 32V40.1849C54.8125 40.7367 55.3883 41.0996 55.8861 40.8615L62.8568 37.5277C63.1909 37.368 63.5915 37.4759 63.8001 37.7818L68.6264 44.8604C68.865 45.2103 68.7667 45.6882 68.4094 45.9156L61.8068 50.1173C61.3437 50.412 61.3437 51.088 61.8068 51.3827L68.4226 55.5928C68.7749 55.817 68.8763 56.2856 68.6482 56.6353L63.8093 64.055C63.5984 64.3783 63.1764 64.4888 62.8341 64.3102L55.9094 60.6973C55.4101 60.4368 54.8125 60.799 54.8125 61.3622V69.5C54.8125 69.9142 54.4767 70.25 54.0625 70.25H45.0625C44.6483 70.25 44.3125 69.9142 44.3125 69.5Z" stroke="white" stroke-width="3"/>
</svg>
