<svg width="56" height="56" viewBox="0 0 56 56" fill="none" xmlns="http://www.w3.org/2000/svg">
<path d="M20.5 53V42.1789C20.5 41.4212 19.69 40.9387 19.0237 41.2997L9.40859 46.5078C8.91168 46.777 8.29062 46.5812 8.03788 46.0758L2.88584 35.7717C2.66416 35.3283 2.80073 34.7895 3.20681 34.5052L11.3009 28.8394C11.8775 28.4357 11.8678 27.5785 11.2821 27.1881L2.78806 21.5254C2.34607 21.2307 2.2116 20.6419 2.48183 20.1846L8.04158 10.7758C8.30211 10.3349 8.85362 10.1621 9.31916 10.3755L19.0833 14.8507C19.7457 15.1543 20.5 14.6703 20.5 13.9416V3C20.5 2.44772 20.9477 2 21.5 2H33.5C34.0523 2 34.5 2.44772 34.5 3V13.9133C34.5 14.649 35.2677 15.1328 35.9315 14.8154L45.2258 10.3703C45.6712 10.1573 46.2053 10.3012 46.4835 10.7091L52.9185 20.1472C53.2366 20.6137 53.1056 21.251 52.6292 21.5542L43.8258 27.1563C43.2083 27.5493 43.2083 28.4507 43.8258 28.8437L52.6469 34.4571C53.1165 34.7559 53.2517 35.3808 52.9476 35.847L46.4957 45.7399C46.2145 46.1711 45.6519 46.3184 45.1955 46.0803L35.9626 41.2631C35.2968 40.9157 34.5 41.3987 34.5 42.1497V53C34.5 53.5523 34.0523 54 33.5 54H21.5C20.9477 54 20.5 53.5523 20.5 53Z" stroke="white" stroke-width="4"/>
</svg>
